<?xml version="1.0" encoding="UTF-8"?>
<!-- Created with Inkscape (http://www.inkscape.org/) -->
<svg width="435.98" height="115.56" version="1.1" viewBox="0 0 115.35 30.576" xmlns="http://www.w3.org/2000/svg" xmlns:cc="http://creativecommons.org/ns#" xmlns:dc="http://purl.org/dc/elements/1.1/" xmlns:rdf="http://www.w3.org/1999/02/22-rdf-syntax-ns#">
 <metadata>
  <rdf:RDF>
   <cc:Work rdf:about="">
    <dc:format>image/svg+xml</dc:format>
    <dc:type rdf:resource="http://purl.org/dc/dcmitype/StillImage"/>
   </cc:Work>
  </rdf:RDF>
 </metadata>
 <g transform="translate(-34.55 -129.01)" fill="#fff">
  <g transform="matrix(.35278 0 0 -.35278 -42.194 438.72)" fill="#fff">
   <g transform="translate(326.85 817.59)">
    <path d="m0 0h22.461c0.621 0 0.977 0.355 0.977 0.799v8.7c0 0.444-0.356 0.799-0.977 0.799h-15.448c-4.173 0-7.013 2.841-7.013 7.014v22.638c0 4.172 2.84 7.013 7.013 7.013h30.983v-12.872h-21.661c-0.533 0-0.888-0.444-0.888-0.977v-8.789c0-0.355 0.355-0.799 0.888-0.799h15.447c4.173 0 7.013-2.841 7.013-7.014v-22.46c0-4.173-2.84-7.014-7.013-7.014h-31.782z" fill="#fff"/>
   </g>
   <g transform="translate(408.26 832.95)">
    <path d="m0 0c0.444 0 0.799 0.444 0.799 0.799v17.045c0 0.445-0.355 0.888-0.799 0.888h-11.718v-18.732zm9.499 31.605c3.639 0 6.747-2.93 6.747-6.747v-30.806c0-3.551-3.108-6.747-6.747-6.747h-21.217v-15.625h-15.448v59.925z" fill="#fff"/>
   </g>
   <g transform="translate(454.42 864.55)">
    <path d="m0 0v-46.165c0-0.444 0.443-0.798 0.799-0.798h11.274c0.533 0 0.977 0.354 0.977 0.798v46.165h15.448v-53.089c0-3.906-3.019-6.836-6.748-6.836h-30.362c-3.64 0-6.836 2.93-6.836 6.836v53.089z" fill="#fff"/>
   </g>
   <g transform="translate(528.99 850.79)">
    <path d="m0 0c0 0.444-0.444 0.888-0.799 0.888h-12.784v-15.98h12.784c0.355 0 0.799 0.444 0.799 0.799zm8.612 13.761c3.639 0 6.747-2.93 6.747-6.748v-27.432c0-3.64-3.108-6.747-6.747-6.747h-0.445l7.369-18.998h-15.093l-7.457 18.998h-6.569v-18.998h-15.447v59.925z" fill="#fff"/>
   </g>
   <g transform="translate(234.33 834.59)">
    <path d="m0 0c0 11.715 7.412 21.69 17.799 25.516l18.578-33.174 7.169 4.014-26.087 46.559c-3.365-0.766-6.58-1.908-9.597-3.391l1.289-8.743-6.956-5.322-8.106 3.5c-2.225-2.547-4.165-5.353-5.76-8.379l6.169-6.307-2.486-8.388-8.615-1.94c-0.154-1.736-0.22-3.51-0.165-5.312 0.061-1.645 0.208-3.258 0.432-4.848l8.71-1.468 2.924-8.246-5.84-6.636c1.765-2.929 3.849-5.653 6.217-8.084l7.909 3.938 7.223-4.942-0.819-8.806c3.097-1.311 6.364-2.297 9.761-2.878l3.794 7.306-5.92 10.572c-10.296 3.874-17.623 13.809-17.623 25.459" fill="#fff"/>
   </g>
   <g transform="translate(305.35 830.83)">
    <path d="m0 0c0.139 1.706 0.197 3.433 0.137 5.172-0.048 1.691-0.21 3.361-0.455 4.997l-8.707 1.443-2.951 8.237 5.801 6.651c-1.759 2.927-3.853 5.622-6.22 8.046l-7.894-3.963-7.236 4.921 0.782 8.804c-3.001 1.266-6.175 2.217-9.471 2.788l-4.025-7.689 5.631-10.054c10.484-3.776 17.981-13.808 17.981-25.593 0-11.63-7.303-21.545-17.571-25.431l-17.418 31.102-7.169-4.015 24.852-44.505c3.362 0.781 6.572 1.94 9.588 3.429l-1.315 8.738 6.932 5.352 8.115-3.477c2.226 2.564 4.161 5.375 5.742 8.398l-6.204 6.282 2.454 8.412z" fill="#fff"/>
   </g>
  </g>
 </g>
</svg>
